<svg xmlns="http://www.w3.org/2000/svg" viewBox="0 0 67.46 105.3"><defs><style>.cls-1{fill:#b2b2b2;}.cls-2{fill:#c6c6c6;}.cls-3{fill:#9d9d9c;}.cls-4{fill:#dadada;}.cls-5{fill:none;stroke:#3d3d3d;stroke-miterlimit:10;}</style></defs><title>logo2</title><g id="Calque_2" data-name="Calque 2"><g id="Calque_1-2" data-name="Calque 1"><polygon class="cls-1" points="9.99 49.91 19.49 55.39 28.98 49.91 19.49 44.43 9.99 49.91"/><polygon class="cls-2" points="9.99 38.95 19.49 33.47 19.49 99.24 9.99 93.76 9.99 38.95"/><polygon class="cls-3" points="0.5 33.47 9.99 38.95 9.99 93.76 0.5 88.28 0.5 33.47"/><polygon class="cls-1" points="0.5 33.68 9.99 39.16 19.49 33.68 9.99 28.2 0.5 33.68"/><polygon class="cls-4" points="19.48 55.39 19.49 99.24 28.98 93.76 28.98 49.91 19.48 55.39"/><polygon class="cls-3" points="38.48 88.28 38.48 99.24 47.97 104.72 47.97 93.76 38.48 88.28"/><polygon class="cls-4" points="38.48 88.28 47.97 82.8 57.46 88.28 47.97 93.76 38.48 88.28"/><polygon class="cls-2" points="47.97 104.72 47.97 93.76 57.46 88.28 57.46 99.24 47.97 104.72"/><polygon class="cls-3" points="38.91 33.47 29.42 27.98 29.42 6.06 38.91 11.54 38.91 33.47"/><polygon class="cls-1" points="28.98 6.36 38.48 0.88 47.97 6.36 38.48 11.84 28.98 6.36"/><polygon class="cls-4" points="38.91 11.54 48.41 6.06 48.41 71.83 38.91 77.32 38.91 11.54"/><polygon class="cls-2" points="47.98 71.83 47.98 6.06 57.9 11.54 57.9 66.35 47.98 71.83"/><polygon class="cls-1" points="47.97 6.36 57.46 0.88 66.96 6.36 57.46 11.84 47.97 6.36"/><polygon class="cls-4" points="57.9 11.54 57.9 66.35 67.4 60.87 67.4 6.06 57.9 11.54"/><polygon class="cls-5" points="0.5 33.47 0.5 88.28 19.49 99.24 28.98 93.76 28.98 49.91 19.49 44.43 19.49 33.47 9.99 27.98 0.5 33.47"/><polygon class="cls-5" points="38.48 33.47 28.98 27.98 28.98 6.06 38.48 0.58 47.97 6.06 57.46 0.58 66.96 6.06 66.96 60.87 38.48 77.32 38.48 33.47"/><line class="cls-5" x1="9.99" y1="93.76" x2="9.99" y2="38.95"/><line class="cls-5" x1="19.49" y1="88.28" x2="19.49" y2="43.73"/><line class="cls-5" x1="38.48" y1="33.47" x2="38.48" y2="11.54"/><line class="cls-5" x1="57.46" y1="66.01" x2="57.46" y2="11.54"/><line class="cls-5" x1="47.98" y1="60.52" x2="47.98" y2="6.06"/><polygon class="cls-5" points="38.48 88.28 47.97 82.8 57.46 88.28 57.46 99.24 47.97 104.72 38.48 99.24 38.48 88.28"/></g></g></svg>