<?xml version="1.0" encoding="utf-8"?>
<!-- Generator: Adobe Illustrator 22.0.1, SVG Export Plug-In . SVG Version: 6.00 Build 0)  -->
<svg version="1.1" id="Calque_1" xmlns="http://www.w3.org/2000/svg" xmlns:xlink="http://www.w3.org/1999/xlink" x="0px" y="0px"
	 viewBox="0 0 233 48" style="enable-background:new 0 0 233 48;" xml:space="preserve">
<style type="text/css">
	.st0{fill:#C8C6C6;}
	.st1{fill:#9D9D9C;}
	.st2{fill:#B3B2B2;}
	.st3{fill:#DADADA;}
	.st4{fill:#3D3D3D;}
	.st5{enable-background:new    ;}
</style>
<title>webmaster-bordeaux-nicolas-metivier-backlink-dark</title>
<g id="Calque_2_1_">
	<g id="Calque_1-2">
		<polygon class="st0" points="4.6,17.8 8.9,15.3 8.9,45.2 4.6,42.7 		"/>
		<polygon class="st1" points="0.2,15.3 4.6,17.8 4.6,42.7 0.2,40.2 		"/>
		<polygon class="st2" points="0.2,15.3 4.6,17.8 8.9,15.3 4.6,12.8 		"/>
		<polygon class="st3" points="8.9,25.2 8.9,45.2 13.2,42.7 13.2,22.7 		"/>
		<polygon class="st1" points="17.5,40.2 17.5,45.2 21.9,47.7 21.9,42.7 		"/>
		<polygon class="st3" points="17.5,40.2 21.9,37.7 26.2,40.2 21.9,42.7 		"/>
		<polygon class="st0" points="21.9,47.7 21.9,42.7 26.2,40.2 26.2,45.2 		"/>
		<polygon class="st1" points="17.5,15.1 13.2,12.6 13.2,2.9 17.5,5.4 		"/>
		<polygon class="st2" points="13.2,2.9 17.5,0.4 21.9,2.9 17.5,5.4 		"/>
		<polygon class="st3" points="17.5,5.4 21.9,2.9 21.9,32.9 17.7,35.4 		"/>
		<polygon class="st0" points="21.9,32.7 21.9,2.9 26.2,5.4 26.2,30.2 		"/>
		<polygon class="st2" points="21.9,2.9 26.2,0.4 30.5,2.9 26.2,5.4 		"/>
		<polygon class="st3" points="26.3,5.3 26.4,30.2 30.7,27.7 30.5,2.9 		"/>
		<path class="st4" d="M8.9,45.5L0,40.4V15.1l4.6-2.6l4.6,2.6v5l4.3,2.5v20.2L8.9,45.5z M0.5,40.1L8.9,45l4.1-2.4V22.9l-4.3-2.5v-5
			L4.6,13l-4.1,2.4V40.1z"/>
		<path class="st4" d="M17.3,35.6V15.4L13,12.9V2.6L17.5,0l4.3,2.5L26.2,0l4.6,2.6v25.2l-0.1,0.1L17.3,35.6z M13.4,12.6l4.3,2.5
			v19.7l12.5-7.2V2.9l-4.1-2.4L21.9,3l-4.3-2.5l-4.1,2.4L13.4,12.6z"/>
		<rect x="4.3" y="17.7" class="st4" width="0.5" height="25"/>
		<rect x="8.7" y="19.9" class="st4" width="0.5" height="20.3"/>
		<rect x="17.3" y="5.3" class="st4" width="0.5" height="10"/>
		<rect x="26" y="5.3" class="st4" width="0.5" height="24.8"/>
		<rect x="21.6" y="2.8" class="st4" width="0.5" height="24.8"/>
		<path class="st4" d="M21.9,48l-4.6-2.6v-5.3l4.6-2.6l4.6,2.6v5.3L21.9,48z M17.8,45.1l4.1,2.4l4.1-2.4v-4.7L21.9,38l-4.1,2.4V45.1
			z"/>
		<polygon class="st2" points="9.1,20.6 9.1,25.1 9.1,25.1 13,22.9 		"/>
		<g class="st5">
			<path class="st4" d="M48.2,19.1c-1,0-1.9-0.2-2.7-0.5c-0.8-0.3-1.5-0.8-2.1-1.4c-0.6-0.6-1.1-1.4-1.4-2.3c-0.3-0.9-0.5-2-0.5-3.2
				c0-1.2,0.2-2.3,0.5-3.2c0.4-0.9,0.9-1.7,1.5-2.3s1.3-1.1,2.2-1.4c0.8-0.3,1.7-0.5,2.6-0.5c0.6,0,1.1,0,1.6,0.1
				c0.5,0.1,0.9,0.2,1.2,0.3s0.6,0.2,0.9,0.3c0.2,0.1,0.4,0.2,0.5,0.2l-0.6,1.7c-0.1-0.1-0.3-0.2-0.5-0.3c-0.2-0.1-0.5-0.2-0.8-0.3
				S50,6,49.6,6c-0.4-0.1-0.7-0.1-1.1-0.1c-0.8,0-1.4,0.1-2,0.4c-0.6,0.3-1.1,0.6-1.6,1.1c-0.4,0.5-0.8,1.1-1,1.8s-0.3,1.5-0.3,2.4
				c0,0.9,0.1,1.6,0.3,2.3s0.5,1.3,0.9,1.8c0.4,0.5,0.9,0.9,1.5,1.2c0.6,0.3,1.3,0.4,2.1,0.4c0.9,0,1.7-0.1,2.3-0.3
				c0.6-0.2,1.1-0.4,1.4-0.5l0.5,1.7c-0.1,0.1-0.3,0.2-0.5,0.3s-0.6,0.2-0.9,0.3c-0.4,0.1-0.8,0.2-1.3,0.2
				C49.4,19.1,48.8,19.1,48.2,19.1z"/>
			<path class="st4" d="M58.7,7.8c0.2,0,0.4,0,0.6,0c0.2,0,0.4,0,0.6,0.1C60.1,8,60.3,8,60.5,8c0.2,0,0.3,0.1,0.4,0.1l-0.3,1.7
				c-0.2-0.1-0.4-0.1-0.8-0.2c-0.4-0.1-0.8-0.1-1.4-0.1c-0.4,0-0.7,0-1.1,0.1c-0.4,0.1-0.6,0.1-0.7,0.2v9h-1.9V8.5
				c0.5-0.2,1-0.3,1.7-0.5C57.1,7.9,57.9,7.8,58.7,7.8z"/>
			<path class="st4" d="M62.1,13.4c0-1,0.1-1.8,0.4-2.5c0.3-0.7,0.6-1.3,1.1-1.8s1-0.8,1.6-1.1c0.6-0.2,1.2-0.4,1.8-0.4
				c1.4,0,2.6,0.5,3.3,1.4c0.8,0.9,1.2,2.3,1.2,4.1c0,0.1,0,0.2,0,0.3s0,0.3,0,0.4h-7.4c0.1,1.1,0.4,2,1,2.5
				c0.6,0.6,1.4,0.9,2.6,0.9c0.7,0,1.2-0.1,1.7-0.2c0.5-0.1,0.8-0.2,1-0.3l0.3,1.6c-0.2,0.1-0.6,0.3-1.2,0.4C69,19,68.3,19,67.6,19
				c-0.9,0-1.7-0.1-2.4-0.4s-1.2-0.7-1.7-1.2c-0.4-0.5-0.8-1.1-1-1.8C62.3,15,62.1,14.3,62.1,13.4z M69.5,12.4
				c0-0.9-0.2-1.6-0.7-2.1c-0.4-0.6-1.1-0.8-1.9-0.8c-0.4,0-0.8,0.1-1.2,0.3c-0.3,0.2-0.6,0.4-0.9,0.7c-0.2,0.3-0.4,0.6-0.5,1
				c-0.1,0.4-0.2,0.7-0.3,1.1H69.5z M69.5,4l-2.9,2.8l-1-0.9l2.6-3.2L69.5,4z"/>
			<path class="st4" d="M77.8,7.8c0.8,0,1.4,0.1,2,0.3c0.5,0.2,1,0.5,1.3,0.8s0.6,0.8,0.7,1.3s0.2,1.1,0.2,1.7v6.7
				c-0.2,0-0.4,0.1-0.7,0.1c-0.3,0-0.6,0.1-1,0.1c-0.4,0-0.8,0.1-1.2,0.1S78.1,19,77.7,19c-0.6,0-1.2-0.1-1.7-0.2s-1-0.3-1.3-0.6
				s-0.7-0.6-0.9-1.1c-0.2-0.4-0.3-1-0.3-1.6c0-0.6,0.1-1.1,0.4-1.5c0.2-0.4,0.6-0.8,1-1s0.9-0.5,1.4-0.6s1.1-0.2,1.7-0.2
				c0.2,0,0.4,0,0.6,0c0.2,0,0.4,0,0.6,0.1s0.3,0.1,0.5,0.1c0.1,0,0.2,0,0.3,0.1V12c0-0.3,0-0.6-0.1-0.9c-0.1-0.3-0.2-0.6-0.4-0.8
				c-0.2-0.2-0.4-0.4-0.7-0.6s-0.7-0.2-1.2-0.2c-0.6,0-1.2,0-1.7,0.1c-0.5,0.1-0.8,0.2-1.1,0.3l-0.2-1.6c0.2-0.1,0.7-0.2,1.2-0.3
				S77.1,7.8,77.8,7.8z M77.9,17.4c0.5,0,0.9,0,1.2,0c0.4,0,0.6-0.1,0.9-0.1v-3.2c-0.1-0.1-0.4-0.1-0.7-0.2c-0.3,0-0.7-0.1-1.1-0.1
				c-0.3,0-0.6,0-0.9,0.1c-0.3,0-0.6,0.1-0.9,0.3c-0.3,0.1-0.5,0.3-0.7,0.5c-0.2,0.2-0.3,0.5-0.3,0.9c0,0.7,0.2,1.2,0.7,1.4
				S77.2,17.4,77.9,17.4z"/>
			<path class="st4" d="M86.9,8H91v1.6h-4.1v5c0,0.5,0,1,0.1,1.3c0.1,0.4,0.2,0.6,0.4,0.8c0.2,0.2,0.4,0.3,0.6,0.4
				c0.2,0.1,0.5,0.1,0.9,0.1c0.6,0,1-0.1,1.4-0.2c0.4-0.1,0.6-0.2,0.7-0.3l0.4,1.6c-0.2,0.1-0.5,0.2-1,0.4c-0.5,0.1-1,0.2-1.7,0.2
				c-0.7,0-1.3-0.1-1.8-0.3c-0.5-0.2-0.9-0.5-1.1-0.8c-0.3-0.4-0.5-0.8-0.6-1.4C85,16,85,15.4,85,14.6V5l1.9-0.3V8z"/>
			<path class="st4" d="M94.4,6.1c-0.3,0-0.6-0.1-0.9-0.3c-0.2-0.2-0.4-0.5-0.4-0.9s0.1-0.7,0.4-0.9c0.2-0.2,0.5-0.3,0.9-0.3
				c0.3,0,0.6,0.1,0.9,0.3c0.2,0.2,0.4,0.5,0.4,0.9s-0.1,0.7-0.4,0.9C95,6,94.7,6.1,94.4,6.1z M95.3,18.8h-1.9V8h1.9V18.8z"/>
			<path class="st4" d="M108.1,13.4c0,0.9-0.1,1.6-0.4,2.3c-0.2,0.7-0.6,1.3-1,1.8s-1,0.9-1.6,1.1c-0.6,0.3-1.3,0.4-2,0.4
				s-1.4-0.1-2-0.4c-0.6-0.3-1.2-0.7-1.6-1.1c-0.4-0.5-0.8-1.1-1-1.8C98.2,15,98,14.3,98,13.4c0-0.8,0.1-1.6,0.4-2.3s0.6-1.3,1-1.8
				c0.4-0.5,1-0.9,1.6-1.1s1.3-0.4,2-0.4s1.4,0.1,2,0.4s1.2,0.7,1.6,1.1s0.8,1.1,1,1.8S108.1,12.6,108.1,13.4z M106.1,13.4
				c0-1.2-0.3-2.2-0.8-2.9c-0.5-0.7-1.3-1.1-2.2-1.1c-0.9,0-1.7,0.4-2.2,1.1c-0.5,0.7-0.8,1.7-0.8,2.9s0.3,2.2,0.8,2.9
				c0.5,0.7,1.3,1.1,2.2,1.1c0.9,0,1.7-0.4,2.2-1.1C105.8,15.6,106.1,14.6,106.1,13.4z"/>
			<path class="st4" d="M110.8,8.4c0.4-0.1,1-0.2,1.8-0.4c0.7-0.1,1.6-0.2,2.5-0.2c0.9,0,1.6,0.1,2.1,0.4c0.6,0.2,1,0.6,1.4,1
				c0.3,0.4,0.6,1,0.7,1.6c0.1,0.6,0.2,1.3,0.2,2v6h-1.9v-5.6c0-0.7,0-1.2-0.1-1.7c-0.1-0.5-0.2-0.8-0.4-1.1
				c-0.2-0.3-0.5-0.5-0.8-0.6c-0.3-0.1-0.8-0.2-1.3-0.2c-0.2,0-0.4,0-0.6,0c-0.2,0-0.4,0-0.6,0.1c-0.2,0-0.4,0-0.5,0.1
				c-0.2,0-0.3,0-0.3,0.1v9.1h-1.9V8.4z"/>
			<path class="st4" d="M134.4,3.1l1.9-0.3v15.7c-0.4,0.1-1,0.2-1.7,0.4c-0.7,0.1-1.5,0.2-2.4,0.2c-0.8,0-1.6-0.1-2.2-0.4
				s-1.2-0.6-1.7-1.1c-0.5-0.5-0.8-1.1-1.1-1.8c-0.3-0.7-0.4-1.5-0.4-2.3c0-0.8,0.1-1.6,0.3-2.3c0.2-0.7,0.5-1.3,0.9-1.8
				s0.9-0.9,1.5-1.2c0.6-0.3,1.3-0.4,2.1-0.4c0.6,0,1.2,0.1,1.6,0.2c0.5,0.2,0.8,0.3,1.1,0.5V3.1z M134.4,10.3
				c-0.2-0.2-0.6-0.4-1-0.6c-0.4-0.2-0.9-0.3-1.4-0.3c-0.6,0-1,0.1-1.4,0.3c-0.4,0.2-0.7,0.5-1,0.8s-0.4,0.8-0.5,1.2
				c-0.1,0.5-0.2,1-0.2,1.6c0,1.3,0.3,2.2,0.9,2.9c0.6,0.7,1.4,1,2.5,1c0.5,0,1,0,1.3-0.1c0.4,0,0.6-0.1,0.8-0.2V10.3z"/>
			<path class="st4" d="M139,13.4c0-1,0.1-1.8,0.4-2.5c0.3-0.7,0.6-1.3,1.1-1.8c0.5-0.5,1-0.8,1.6-1.1c0.6-0.2,1.2-0.4,1.8-0.4
				c1.4,0,2.6,0.5,3.3,1.4c0.8,0.9,1.2,2.3,1.2,4.1c0,0.1,0,0.2,0,0.3s0,0.3,0,0.4H141c0.1,1.1,0.4,2,1,2.5c0.6,0.6,1.4,0.9,2.6,0.9
				c0.7,0,1.2-0.1,1.7-0.2c0.5-0.1,0.8-0.2,1-0.3l0.3,1.6c-0.2,0.1-0.6,0.3-1.2,0.4c-0.6,0.1-1.3,0.2-2,0.2c-0.9,0-1.7-0.1-2.4-0.4
				c-0.7-0.3-1.2-0.7-1.7-1.2s-0.8-1.1-1-1.8C139.1,15,139,14.3,139,13.4z M146.4,12.4c0-0.9-0.2-1.6-0.7-2.1
				c-0.4-0.6-1.1-0.8-1.8-0.8c-0.4,0-0.8,0.1-1.2,0.3c-0.3,0.2-0.6,0.4-0.9,0.7c-0.2,0.3-0.4,0.6-0.5,1c-0.1,0.4-0.2,0.7-0.3,1.1
				H146.4z"/>
			<path class="st4" d="M158.5,17.4c0.8,0,1.4-0.1,1.7-0.3c0.4-0.2,0.6-0.5,0.6-1c0-0.5-0.2-0.8-0.6-1.1c-0.4-0.3-1-0.6-1.8-0.9
				c-0.4-0.2-0.8-0.3-1.2-0.5c-0.4-0.2-0.7-0.4-1-0.6s-0.5-0.5-0.7-0.8c-0.2-0.3-0.2-0.7-0.2-1.2c0-1,0.4-1.7,1.1-2.3
				c0.7-0.6,1.7-0.8,2.9-0.8c0.3,0,0.6,0,0.9,0.1c0.3,0,0.6,0.1,0.8,0.1c0.3,0,0.5,0.1,0.7,0.2c0.2,0.1,0.4,0.1,0.5,0.1l-0.4,1.7
				c-0.2-0.1-0.5-0.2-1-0.3c-0.4-0.1-1-0.2-1.6-0.2c-0.5,0-1,0.1-1.4,0.3c-0.4,0.2-0.6,0.5-0.6,1c0,0.2,0,0.4,0.1,0.6
				c0.1,0.2,0.2,0.3,0.4,0.5c0.2,0.1,0.4,0.3,0.7,0.4s0.6,0.3,1,0.4c0.5,0.2,1,0.4,1.4,0.6c0.4,0.2,0.7,0.4,1,0.7
				c0.3,0.2,0.5,0.5,0.7,0.9c0.2,0.4,0.2,0.8,0.2,1.3c0,1-0.4,1.7-1.1,2.3s-1.8,0.8-3.2,0.8c-1,0-1.7-0.1-2.2-0.2
				c-0.5-0.2-0.9-0.3-1.1-0.4l0.4-1.7c0.2,0.1,0.6,0.2,1.1,0.4C157,17.3,157.7,17.4,158.5,17.4z"/>
			<path class="st4" d="M166.1,6.1c-0.3,0-0.6-0.1-0.9-0.3s-0.4-0.5-0.4-0.9s0.1-0.7,0.4-0.9s0.5-0.3,0.9-0.3c0.3,0,0.6,0.1,0.9,0.3
				s0.4,0.5,0.4,0.9s-0.1,0.7-0.4,0.9S166.5,6.1,166.1,6.1z M167.1,18.8h-1.9V8h1.9V18.8z"/>
		</g>
		<g class="st5">
			<path class="st4" d="M172.2,8h4.1v1.6h-4.1v5c0,0.5,0,1,0.1,1.3c0.1,0.4,0.2,0.6,0.4,0.8c0.2,0.2,0.4,0.3,0.6,0.4
				c0.2,0.1,0.5,0.1,0.9,0.1c0.6,0,1-0.1,1.4-0.2s0.6-0.2,0.7-0.3l0.4,1.6c-0.2,0.1-0.5,0.2-1,0.4c-0.5,0.1-1,0.2-1.7,0.2
				c-0.7,0-1.3-0.1-1.8-0.3c-0.5-0.2-0.9-0.5-1.1-0.8c-0.3-0.4-0.5-0.8-0.6-1.4c-0.1-0.5-0.2-1.2-0.2-1.9V5l1.9-0.3V8z"/>
		</g>
		<g class="st5">
			<path class="st4" d="M177.9,13.4c0-1,0.1-1.8,0.4-2.5c0.3-0.7,0.6-1.3,1.1-1.8c0.5-0.5,1-0.8,1.6-1.1c0.6-0.2,1.2-0.4,1.8-0.4
				c1.4,0,2.6,0.5,3.3,1.4c0.8,0.9,1.2,2.3,1.2,4.1c0,0.1,0,0.2,0,0.3s0,0.3,0,0.4h-7.4c0.1,1.1,0.4,2,1,2.5
				c0.6,0.6,1.4,0.9,2.6,0.9c0.7,0,1.2-0.1,1.7-0.2c0.5-0.1,0.8-0.2,1-0.3l0.3,1.6c-0.2,0.1-0.6,0.3-1.2,0.4c-0.6,0.1-1.3,0.2-2,0.2
				c-0.9,0-1.7-0.1-2.4-0.4c-0.7-0.3-1.2-0.7-1.7-1.2s-0.8-1.1-1-1.8C178,15,177.9,14.3,177.9,13.4z M185.3,12.4
				c0-0.9-0.2-1.6-0.7-2.1c-0.4-0.6-1.1-0.8-1.8-0.8c-0.4,0-0.8,0.1-1.2,0.3c-0.3,0.2-0.6,0.4-0.9,0.7c-0.2,0.3-0.4,0.6-0.5,1
				c-0.1,0.4-0.2,0.7-0.3,1.1H185.3z"/>
			<path class="st4" d="M203.6,18.8c-0.4-1-0.8-2.1-1.2-3.4c-0.4-1.3-0.8-2.6-1.2-4c-0.4,1.4-0.8,2.7-1.2,4
				c-0.4,1.3-0.8,2.4-1.2,3.4h-1.7c-0.6-1.4-1.3-3-1.9-4.9c-0.6-1.8-1.2-3.8-1.7-5.9h2.1c0.1,0.6,0.3,1.4,0.5,2.1
				c0.2,0.8,0.4,1.5,0.6,2.3c0.2,0.8,0.4,1.5,0.7,2.2c0.2,0.7,0.5,1.3,0.7,1.8c0.2-0.6,0.5-1.3,0.7-2.1s0.4-1.5,0.7-2.2
				c0.2-0.7,0.4-1.5,0.6-2.2c0.2-0.7,0.3-1.4,0.5-2h1.6c0.1,0.6,0.3,1.3,0.5,2c0.2,0.7,0.4,1.4,0.6,2.2c0.2,0.7,0.4,1.5,0.7,2.2
				s0.5,1.4,0.7,2.1c0.2-0.5,0.4-1.1,0.7-1.8c0.2-0.7,0.5-1.4,0.7-2.2c0.2-0.8,0.4-1.5,0.6-2.3c0.2-0.8,0.4-1.5,0.5-2.1h2
				c-0.5,2.1-1.1,4.1-1.7,5.9s-1.2,3.4-1.9,4.9H203.6z"/>
			<path class="st4" d="M210.3,13.4c0-1,0.1-1.8,0.4-2.5c0.3-0.7,0.6-1.3,1.1-1.8c0.5-0.5,1-0.8,1.6-1.1c0.6-0.2,1.2-0.4,1.8-0.4
				c1.4,0,2.6,0.5,3.3,1.4s1.2,2.3,1.2,4.1c0,0.1,0,0.2,0,0.3s0,0.3,0,0.4h-7.4c0.1,1.1,0.4,2,1,2.5c0.6,0.6,1.4,0.9,2.6,0.9
				c0.7,0,1.2-0.1,1.7-0.2c0.5-0.1,0.8-0.2,1-0.3l0.3,1.6c-0.2,0.1-0.6,0.3-1.2,0.4s-1.2,0.2-2,0.2c-0.9,0-1.7-0.1-2.4-0.4
				c-0.7-0.3-1.2-0.7-1.7-1.2c-0.4-0.5-0.8-1.1-1-1.8C210.4,15,210.3,14.3,210.3,13.4z M217.7,12.4c0-0.9-0.2-1.6-0.7-2.1
				c-0.4-0.6-1.1-0.8-1.9-0.8c-0.4,0-0.8,0.1-1.2,0.3c-0.3,0.2-0.6,0.4-0.9,0.7c-0.2,0.3-0.4,0.6-0.5,1s-0.2,0.7-0.3,1.1H217.7z"/>
			<path class="st4" d="M224.4,8.5c0.2-0.2,0.6-0.3,1.1-0.5c0.5-0.2,1-0.2,1.6-0.2c0.8,0,1.5,0.1,2.1,0.4s1.1,0.7,1.5,1.2
				c0.4,0.5,0.7,1.1,0.9,1.8c0.2,0.7,0.3,1.4,0.3,2.3c0,0.9-0.1,1.7-0.4,2.3c-0.3,0.7-0.6,1.3-1.1,1.8c-0.5,0.5-1,0.9-1.7,1.1
				c-0.7,0.3-1.4,0.4-2.2,0.4c-0.9,0-1.7-0.1-2.4-0.2c-0.7-0.1-1.3-0.2-1.7-0.4V3.1l1.9-0.3V8.5z M224.4,17.1
				c0.2,0.1,0.5,0.1,0.8,0.2c0.4,0,0.8,0.1,1.3,0.1c1,0,1.9-0.3,2.5-1c0.6-0.7,0.9-1.7,0.9-2.9c0-0.6-0.1-1.1-0.2-1.6
				c-0.1-0.5-0.3-0.9-0.5-1.2s-0.6-0.6-1-0.8c-0.4-0.2-0.9-0.3-1.4-0.3c-0.5,0-1,0.1-1.4,0.3c-0.4,0.2-0.8,0.4-1,0.6V17.1z"/>
		</g>
		<g class="st5">
			<path class="st4" d="M52.9,43.7c-0.2,0-0.5,0-0.8,0s-0.6,0-1-0.1c-0.3,0-0.6-0.1-0.9-0.1c-0.3,0-0.5-0.1-0.7-0.2V29.5
				c0.2-0.1,0.5-0.1,0.8-0.2c0.3,0,0.6-0.1,0.9-0.1c0.3,0,0.6-0.1,1-0.1s0.6,0,0.9,0c0.8,0,1.5,0.1,2.2,0.2c0.7,0.1,1.3,0.3,1.8,0.6
				c0.5,0.3,0.9,0.7,1.3,1.1s0.5,1.1,0.5,1.8c0,0.8-0.2,1.4-0.6,2c-0.4,0.5-0.9,0.9-1.6,1.1c0.4,0.1,0.8,0.2,1.1,0.4
				c0.3,0.2,0.6,0.4,0.9,0.7c0.3,0.3,0.5,0.6,0.6,1c0.1,0.4,0.2,0.9,0.2,1.5c0,1.4-0.5,2.4-1.6,3.1C56.8,43.4,55.1,43.7,52.9,43.7z
				 M50.9,35.5h2.7c0.5,0,1,0,1.4-0.1c0.5-0.1,0.9-0.2,1.2-0.4c0.3-0.2,0.6-0.5,0.8-0.8c0.2-0.3,0.3-0.8,0.3-1.3
				c0-0.5-0.1-0.9-0.3-1.2c-0.2-0.3-0.5-0.6-0.9-0.8c-0.4-0.2-0.8-0.4-1.4-0.4c-0.5-0.1-1.1-0.1-1.7-0.1c-0.5,0-0.9,0-1.3,0
				c-0.4,0-0.6,0.1-0.9,0.1V35.5z M50.9,36.7v5.7c0.2,0,0.5,0.1,0.9,0.1c0.4,0,0.8,0.1,1.3,0.1c0.6,0,1.3,0,1.8-0.1
				c0.6-0.1,1.1-0.2,1.6-0.5c0.5-0.2,0.8-0.5,1.1-0.9c0.3-0.4,0.4-0.9,0.4-1.5c0-0.6-0.1-1-0.3-1.4s-0.5-0.7-0.8-0.9
				s-0.8-0.4-1.3-0.4s-1.1-0.1-1.7-0.1H50.9z"/>
			<path class="st4" d="M71.5,38.3c0,0.8-0.1,1.6-0.4,2.3c-0.2,0.7-0.6,1.3-1,1.8s-0.9,0.9-1.5,1.1c-0.6,0.3-1.2,0.4-2,0.4
				c-0.7,0-1.4-0.1-2-0.4c-0.6-0.3-1.1-0.6-1.5-1.1s-0.8-1.1-1-1.8c-0.2-0.7-0.4-1.5-0.4-2.3c0-0.8,0.1-1.6,0.4-2.3
				c0.2-0.7,0.6-1.3,1-1.8s0.9-0.9,1.5-1.1c0.6-0.3,1.2-0.4,2-0.4c0.7,0,1.4,0.1,2,0.4c0.6,0.3,1.1,0.6,1.5,1.1s0.8,1.1,1,1.8
				C71.4,36.7,71.5,37.4,71.5,38.3z M70.1,38.3c0-1.3-0.3-2.4-0.9-3.2c-0.6-0.8-1.5-1.2-2.5-1.2c-1.1,0-1.9,0.4-2.5,1.2
				c-0.6,0.8-0.9,1.9-0.9,3.2c0,1.3,0.3,2.4,0.9,3.2c0.6,0.8,1.5,1.2,2.5,1.2c1.1,0,1.9-0.4,2.5-1.2C69.8,40.7,70.1,39.6,70.1,38.3z
				"/>
			<path class="st4" d="M78.1,32.7c0.4,0,0.9,0,1.3,0.1c0.4,0.1,0.7,0.1,0.8,0.2l-0.3,1.2c-0.1-0.1-0.3-0.1-0.7-0.2
				c-0.3-0.1-0.8-0.1-1.3-0.1c-0.6,0-1,0-1.4,0.1c-0.4,0.1-0.6,0.2-0.7,0.2v9.4h-1.3V33.4c0.3-0.2,0.8-0.3,1.4-0.5
				S77.2,32.7,78.1,32.7z"/>
			<path class="st4" d="M90.7,43.3c-0.4,0.1-0.9,0.3-1.5,0.4c-0.6,0.1-1.4,0.2-2.4,0.2c-0.8,0-1.5-0.1-2.1-0.4
				c-0.6-0.3-1.2-0.6-1.7-1.1c-0.5-0.5-0.8-1.1-1.1-1.8s-0.4-1.5-0.4-2.3c0-0.8,0.1-1.6,0.3-2.2c0.2-0.7,0.5-1.3,0.9-1.8
				c0.4-0.5,0.9-0.9,1.5-1.2s1.3-0.4,2.1-0.4c0.7,0,1.3,0.1,1.8,0.3c0.5,0.2,0.9,0.4,1.1,0.6v-5.7l1.3-0.2V43.3z M89.3,34.9
				c-0.1-0.1-0.3-0.2-0.5-0.3s-0.4-0.2-0.7-0.3s-0.5-0.2-0.8-0.2c-0.3-0.1-0.6-0.1-0.9-0.1c-0.7,0-1.2,0.1-1.7,0.4s-0.8,0.5-1.1,0.9
				c-0.3,0.4-0.5,0.9-0.6,1.4S83,37.7,83,38.3c0,1.4,0.4,2.5,1.1,3.2s1.6,1.1,2.8,1.1c0.7,0,1.2,0,1.6-0.1c0.4-0.1,0.7-0.1,0.9-0.2
				V34.9z"/>
			<path class="st4" d="M93.6,38.2c0-0.9,0.1-1.8,0.4-2.4c0.3-0.7,0.6-1.3,1.1-1.7c0.4-0.5,0.9-0.8,1.5-1c0.6-0.2,1.1-0.3,1.7-0.3
				c1.3,0,2.4,0.4,3.1,1.3c0.8,0.9,1.2,2.2,1.2,3.9c0,0.1,0,0.2,0,0.3s0,0.2,0,0.3H95c0,1.3,0.4,2.3,1,3c0.6,0.7,1.6,1.1,2.9,1.1
				c0.7,0,1.3-0.1,1.7-0.2c0.4-0.1,0.7-0.3,0.9-0.4l0.2,1.2c-0.2,0.1-0.6,0.2-1.1,0.4c-0.5,0.2-1.2,0.2-1.9,0.2
				c-0.9,0-1.7-0.1-2.4-0.4c-0.7-0.3-1.2-0.7-1.6-1.2c-0.4-0.5-0.7-1.1-0.9-1.8C93.7,39.8,93.6,39.1,93.6,38.2z M101.2,37.4
				c0-1.1-0.3-2-0.8-2.6s-1.2-0.9-2.1-0.9c-0.5,0-0.9,0.1-1.3,0.3c-0.4,0.2-0.7,0.5-1,0.8c-0.3,0.3-0.5,0.7-0.7,1.1
				c-0.2,0.4-0.3,0.9-0.3,1.3H101.2z"/>
			<path class="st4" d="M108.8,32.7c0.7,0,1.3,0.1,1.8,0.3c0.5,0.2,0.9,0.5,1.2,0.8c0.3,0.4,0.5,0.8,0.7,1.2s0.2,1,0.2,1.6v6.7
				c-0.1,0-0.3,0.1-0.6,0.1c-0.3,0-0.6,0.1-0.9,0.2c-0.3,0.1-0.7,0.1-1.1,0.1c-0.4,0-0.9,0.1-1.3,0.1c-0.6,0-1.1-0.1-1.6-0.2
				s-0.9-0.3-1.2-0.6s-0.6-0.6-0.8-1c-0.2-0.4-0.3-0.9-0.3-1.5c0-0.6,0.1-1.1,0.3-1.5c0.2-0.4,0.5-0.8,0.9-1
				c0.4-0.3,0.9-0.5,1.4-0.6s1.2-0.2,1.8-0.2c0.2,0,0.4,0,0.6,0c0.2,0,0.4,0,0.6,0.1c0.2,0,0.4,0.1,0.5,0.1s0.2,0.1,0.3,0.1v-0.7
				c0-0.4,0-0.7-0.1-1.1c-0.1-0.4-0.2-0.7-0.4-1s-0.4-0.5-0.8-0.7c-0.3-0.2-0.8-0.3-1.3-0.3c-0.8,0-1.4,0.1-1.8,0.2
				s-0.7,0.2-0.8,0.3l-0.2-1.2c0.2-0.1,0.6-0.2,1.1-0.3C107.5,32.7,108.1,32.7,108.8,32.7z M108.9,42.6c0.5,0,1,0,1.4-0.1
				c0.4,0,0.7-0.1,1-0.1v-3.8c-0.2-0.1-0.4-0.1-0.7-0.2c-0.3-0.1-0.8-0.1-1.4-0.1c-0.3,0-0.7,0-1,0.1c-0.4,0-0.7,0.2-1,0.3
				c-0.3,0.2-0.6,0.4-0.7,0.7c-0.2,0.3-0.3,0.6-0.3,1.1c0,0.4,0.1,0.7,0.2,1s0.3,0.5,0.6,0.7c0.2,0.2,0.5,0.3,0.9,0.4
				C108.1,42.6,108.5,42.6,108.9,42.6z"/>
			<path class="st4" d="M124.3,43.2c-0.4,0.1-0.9,0.2-1.6,0.4c-0.7,0.1-1.5,0.2-2.5,0.2c-0.8,0-1.5-0.1-2-0.4c-0.5-0.2-1-0.6-1.3-1
				s-0.6-0.9-0.7-1.6c-0.1-0.6-0.2-1.3-0.2-2v-6h1.3v5.6c0,0.8,0.1,1.4,0.2,1.9c0.1,0.5,0.3,0.9,0.5,1.3c0.2,0.3,0.6,0.6,1,0.7
				c0.4,0.1,0.9,0.2,1.4,0.2c0.6,0,1.2,0,1.7-0.1c0.5-0.1,0.8-0.1,0.9-0.2v-9.4h1.3V43.2z"/>
			<path class="st4" d="M131.2,39.1c-0.3,0.4-0.6,0.7-0.9,1.1c-0.3,0.4-0.6,0.8-0.9,1.2c-0.3,0.4-0.5,0.8-0.8,1.2
				c-0.2,0.4-0.4,0.7-0.6,1h-1.4c0.6-1.1,1.2-2,1.8-2.9s1.3-1.8,2-2.6l-3.6-5.1h1.6l2.8,4l2.8-4h1.5l-3.5,5.1c0.3,0.4,0.6,0.8,1,1.2
				s0.7,0.9,1,1.4c0.3,0.5,0.7,1,1,1.5s0.6,1,0.9,1.5h-1.4c-0.2-0.3-0.4-0.6-0.6-1s-0.5-0.7-0.8-1.1c-0.3-0.4-0.6-0.8-0.9-1.2
				S131.5,39.5,131.2,39.1z"/>
			<path class="st4" d="M143.1,27.4h1.3v20h-1.3V27.4z"/>
		</g>
		<g class="st5">
			<path class="st4" d="M156.7,29.2c2,0,3.5,0.4,4.5,1.2c1,0.8,1.5,1.9,1.5,3.3c0,0.8-0.1,1.5-0.4,2.1s-0.7,1-1.2,1.4
				s-1.2,0.6-2,0.8c-0.8,0.2-1.7,0.2-2.6,0.2h-1.9v5.5h-1.4V29.5c0.5-0.1,1.1-0.2,1.7-0.3C155.5,29.2,156.1,29.2,156.7,29.2z
				 M156.8,30.4c-0.5,0-1,0-1.3,0.1c-0.4,0-0.7,0.1-0.9,0.1v6.3h1.8c0.8,0,1.4,0,2.1-0.1c0.6-0.1,1.1-0.3,1.6-0.5
				c0.4-0.2,0.8-0.6,1-1c0.2-0.4,0.4-1,0.4-1.6c0-0.6-0.1-1.2-0.4-1.6s-0.6-0.7-1-1c-0.4-0.2-0.9-0.4-1.4-0.5S157.3,30.4,156.8,30.4
				z"/>
		</g>
		<g class="st5">
			<path class="st4" d="M174.1,38.3c0,0.8-0.1,1.6-0.4,2.3c-0.2,0.7-0.6,1.3-1,1.8s-0.9,0.9-1.5,1.1c-0.6,0.3-1.2,0.4-2,0.4
				c-0.7,0-1.4-0.1-2-0.4c-0.6-0.3-1.1-0.6-1.5-1.1c-0.4-0.5-0.8-1.1-1-1.8c-0.2-0.7-0.4-1.5-0.4-2.3c0-0.8,0.1-1.6,0.4-2.3
				c0.2-0.7,0.6-1.3,1-1.8c0.4-0.5,0.9-0.9,1.5-1.1c0.6-0.3,1.2-0.4,2-0.4c0.7,0,1.4,0.1,2,0.4c0.6,0.3,1.1,0.6,1.5,1.1
				s0.8,1.1,1,1.8C174,36.7,174.1,37.4,174.1,38.3z M172.7,38.3c0-1.3-0.3-2.4-0.9-3.2c-0.6-0.8-1.5-1.2-2.5-1.2
				c-1.1,0-1.9,0.4-2.5,1.2c-0.6,0.8-0.9,1.9-0.9,3.2c0,1.3,0.3,2.4,0.9,3.2c0.6,0.8,1.5,1.2,2.5,1.2c1.1,0,1.9-0.4,2.5-1.2
				C172.4,40.7,172.7,39.6,172.7,38.3z"/>
			<path class="st4" d="M178.7,29.7c0,0.3-0.1,0.6-0.3,0.8c-0.2,0.2-0.4,0.3-0.7,0.3s-0.5-0.1-0.7-0.3c-0.2-0.2-0.3-0.4-0.3-0.8
				c0-0.3,0.1-0.6,0.3-0.8c0.2-0.2,0.4-0.3,0.7-0.3s0.5,0.1,0.7,0.3C178.6,29.1,178.7,29.4,178.7,29.7z M178.4,43.6h-1.3V32.9h1.3
				V43.6z"/>
			<path class="st4" d="M183.2,32.9h4.3V34h-4.3v5.7c0,0.6,0.1,1.1,0.2,1.5c0.1,0.4,0.3,0.7,0.4,0.9c0.2,0.2,0.4,0.3,0.7,0.4
				c0.3,0.1,0.6,0.1,0.9,0.1c0.6,0,1-0.1,1.4-0.2c0.3-0.1,0.6-0.3,0.8-0.4l0.3,1.1c-0.2,0.1-0.5,0.3-1,0.4s-1,0.2-1.6,0.2
				c-0.7,0-1.2-0.1-1.7-0.3c-0.4-0.2-0.8-0.4-1.1-0.8c-0.3-0.4-0.5-0.8-0.6-1.3c-0.1-0.5-0.2-1.1-0.2-1.9v-9.8l1.3-0.2V32.9z"/>
			<path class="st4" d="M191.6,29.7c0,0.3-0.1,0.6-0.3,0.8c-0.2,0.2-0.4,0.3-0.7,0.3c-0.3,0-0.5-0.1-0.7-0.3
				c-0.2-0.2-0.3-0.4-0.3-0.8c0-0.3,0.1-0.6,0.3-0.8c0.2-0.2,0.4-0.3,0.7-0.3c0.3,0,0.5,0.1,0.7,0.3
				C191.5,29.1,191.6,29.4,191.6,29.7z M191.3,43.6H190V32.9h1.3V43.6z"/>
			<path class="st4" d="M194.2,38.2c0-0.9,0.1-1.8,0.4-2.4s0.6-1.3,1.1-1.7c0.4-0.5,0.9-0.8,1.5-1c0.6-0.2,1.1-0.3,1.7-0.3
				c1.3,0,2.4,0.4,3.1,1.3c0.8,0.9,1.2,2.2,1.2,3.9c0,0.1,0,0.2,0,0.3c0,0.1,0,0.2,0,0.3h-7.5c0,1.3,0.4,2.3,1,3
				c0.6,0.7,1.6,1.1,2.9,1.1c0.7,0,1.3-0.1,1.7-0.2c0.4-0.1,0.7-0.3,0.9-0.4l0.2,1.2c-0.2,0.1-0.6,0.2-1.1,0.4
				c-0.5,0.2-1.2,0.2-1.9,0.2c-0.9,0-1.7-0.1-2.4-0.4c-0.7-0.3-1.2-0.7-1.6-1.2s-0.7-1.1-0.9-1.8C194.3,39.8,194.2,39.1,194.2,38.2z
				 M201.8,37.4c0-1.1-0.3-2-0.8-2.6s-1.2-0.9-2.1-0.9c-0.5,0-0.9,0.1-1.3,0.3c-0.4,0.2-0.7,0.5-1,0.8c-0.3,0.3-0.5,0.7-0.7,1.1
				c-0.2,0.4-0.3,0.9-0.3,1.3H201.8z"/>
			<path class="st4" d="M209.8,32.7c0.4,0,0.9,0,1.3,0.1c0.4,0.1,0.7,0.1,0.8,0.2l-0.3,1.2c-0.1-0.1-0.3-0.1-0.7-0.2
				c-0.3-0.1-0.8-0.1-1.3-0.1c-0.6,0-1,0-1.4,0.1s-0.6,0.2-0.7,0.2v9.4h-1.3V33.4c0.3-0.2,0.8-0.3,1.4-0.5
				C208.2,32.8,209,32.7,209.8,32.7z"/>
			<path class="st4" d="M216.1,42.6c0.8,0,1.4-0.1,1.9-0.4s0.8-0.7,0.8-1.3c0-0.3,0-0.5-0.1-0.7s-0.2-0.4-0.4-0.6
				c-0.2-0.2-0.5-0.3-0.8-0.5s-0.8-0.3-1.2-0.5c-0.4-0.2-0.8-0.3-1.1-0.5c-0.4-0.2-0.7-0.4-1-0.6s-0.5-0.5-0.7-0.8s-0.2-0.7-0.2-1.2
				c0-0.9,0.3-1.6,1-2.1c0.7-0.5,1.6-0.8,2.7-0.8c0.7,0,1.3,0.1,1.8,0.2c0.5,0.1,0.8,0.2,1,0.3l-0.3,1.2c-0.2-0.1-0.4-0.2-0.8-0.3
				s-1-0.2-1.7-0.2c-0.3,0-0.6,0-0.9,0.1c-0.3,0.1-0.5,0.2-0.7,0.3c-0.2,0.1-0.4,0.3-0.5,0.5c-0.1,0.2-0.2,0.4-0.2,0.7
				s0.1,0.5,0.2,0.7c0.1,0.2,0.3,0.4,0.5,0.5c0.2,0.2,0.5,0.3,0.8,0.4c0.3,0.1,0.7,0.3,1.1,0.5c0.4,0.2,0.8,0.3,1.2,0.5
				s0.7,0.4,1,0.6c0.3,0.2,0.5,0.5,0.7,0.9s0.3,0.8,0.3,1.3c0,1-0.4,1.7-1.1,2.2c-0.7,0.5-1.7,0.7-3,0.7c-0.9,0-1.7-0.1-2.1-0.2
				s-0.8-0.3-1-0.4l0.4-1.2c0,0,0.1,0.1,0.3,0.1c0.1,0.1,0.3,0.1,0.6,0.2c0.2,0.1,0.5,0.1,0.8,0.2C215.3,42.6,215.7,42.6,216.1,42.6
				z"/>
		</g>
	</g>
</g>
</svg>
